<svg 
    xmlns="http://www.w3.org/2000/svg" 
    xmlns:xlink="http://www.w3.org/1999/xlink" 
    viewBox="0 0 512 512"
>
    <g>
        <!-- Corazón central -->
        <path 
            d="M286 280a14.9 14.9 0 0 0-10.605 4.395l-8.79 8.785a14.996 14.996 0 0 1-21.21 0l-8.79-8.785A14.9 14.9 0 0 0 226 280a14.908 14.908 0 0 0-10.605 4.395c-5.848 5.847-5.848 15.363 0 21.214L256 345.875l40.648-40.313c2.79-2.789 4.352-6.554 4.352-10.562s-1.563-7.773-4.395-10.605S290.008 280 286 280zm0 0" 
            fill="#7C3AED"
        />
        
        <!-- Silueta principal con huellas y forma exterior -->
        <path 
            d="M414.512 267.473c-9.7-34.934-30.078-64.993-58.942-86.934C326.71 158.598 292.293 147 256.035 147c-36.281 0-70.719 11.613-99.594 33.586-28.875 21.969-49.246 52.066-58.918 87.035l-21.933 79.29c-6.895 24.933-1.852 51.03 13.844 71.6 15.648 20.509 39.394 32.259 65.183 32.259h.223l202.758-.532c25.8-.066 49.539-11.898 65.129-32.457 15.586-20.562 20.57-46.613 13.668-71.476zM317.82 326.82l-51.257 50.832C263.637 380.551 259.82 382 256 382s-7.637-1.45-10.562-4.348l-51.211-50.785c-17.59-17.594-17.59-46.14-.047-63.687 16.953-16.95 44.172-17.524 61.82-1.723 17.648-15.8 44.871-15.227 61.82 1.723 17.543 17.547 17.543 46.093 0 63.64zM175 130c35.84 0 65-29.16 65-65S210.84 0 175 0s-65 29.16-65 65 29.16 65 65 65zM337 130c35.84 0 65-29.16 65-65S372.84 0 337 0s-65 29.16-65 65 29.16 65 65 65zM457 108c-30.328 0-55 24.672-55 55s24.672 55 55 55 55-24.672 55-55-24.672-55-55-55zM110 163c0-30.328-24.672-55-55-55S0 132.672 0 163s24.672 55 55 55 55-24.672 55-55zm0 0" 
            fill="#7C3AED"
        />
    </g>
</svg>